<svg width="564" height="122" viewBox="0 0 564 122" fill="none" xmlns="http://www.w3.org/2000/svg">
<path d="M15.75 4.1875C18.4583 5.27083 21.0625 6.08333 23.5625 6.625C26.1042 7.125 28.9167 7.375 32 7.375C37.4583 7.375 43.4167 6.3125 49.875 4.1875C46.875 9.6875 45.2292 14.9375 44.9375 19.9375C40.8958 19.7292 37.2917 19.1042 34.125 18.0625C30.9583 17.0208 28.0833 15.5417 25.5 13.625C22.7083 11.5417 20.5 9.77083 18.875 8.3125C17.2917 6.8125 16.2083 5.64583 15.625 4.8125C14.7083 10.6458 14.0208 17.0417 13.5625 24C13.1458 30.9167 12.9375 38.5 12.9375 46.75V47.875C24.4375 47.2917 34.2708 44.9375 42.4375 40.8125C41.4792 42.5625 40.625 44.8125 39.875 47.5625C39.125 50.3125 38.5833 53.3125 38.25 56.5625L36.5625 56.0625C34.2292 55.3542 31.1875 54.8125 27.4375 54.4375C23.6875 54.0625 19.1875 53.8958 13.9375 53.9375H13C13.125 62.9792 13.3542 70.5417 13.6875 76.625C14.0208 82.7083 14.5417 87.375 15.25 90.625L15.75 92.875C13.9583 93.0833 12.25 93.4167 10.625 93.875C9.04167 94.2917 7.5625 94.7708 6.1875 95.3125C4.85417 95.8542 3.64583 96.4167 2.5625 97C1.52083 97.5833 0.666667 98.125 0 98.625C0.916667 92.4167 1.58333 85.8542 2 78.9375C2.45833 71.9792 2.6875 64.5625 2.6875 56.6875C2.60417 45.6042 2.35417 36.3333 1.9375 28.875C1.5625 21.375 1.04167 15.7083 0.375 11.875L0 9.75C2.54167 9.45833 5.0625 8.875 7.5625 8C10.1042 7.125 12.8333 5.85417 15.75 4.1875ZM59.25 98.625C60.0417 92.3333 60.625 86.625 61 81.5C61.4167 76.3333 61.625 71.6667 61.625 67.5C61.625 64.125 61.5833 60.9792 61.5 58.0625C61.4583 55.1042 61.3542 52.3125 61.1875 49.6875C61.0208 47.0208 60.7917 44.4583 60.5 42C60.25 39.5417 59.9375 37.0625 59.5625 34.5625L59.25 33.5625C61.7917 33.2708 64.3125 32.6875 66.8125 31.8125C69.3542 30.8958 71.9375 29.7083 74.5625 28.25L75 28C74.5833 29.2083 74.1458 30.5417 73.6875 32C73.2292 33.4167 72.7708 34.9167 72.3125 36.5L86 28C87.6667 28.4583 89.7292 29.2708 92.1875 30.4375C94.6875 31.5625 97.2083 33.0625 99.75 34.9375C102.292 36.7708 104.667 38.9583 106.875 41.5C109.125 44 110.812 46.8333 111.938 50L100.625 54.625C98.9167 51.5 96.9583 48.875 94.75 46.75C92.5417 44.5833 90.2708 42.8333 87.9375 41.5C85.6042 40.125 83.3125 39.1458 81.0625 38.5625C78.8125 37.9375 76.7917 37.625 75 37.625C74.125 37.625 73.25 37.6875 72.375 37.8125H72.3125C72.1458 39.3542 72.0208 41.8125 71.9375 45.1875C71.8958 48.5208 71.875 52.8125 71.875 58.0625V60.25C71.875 71.9583 72.75 82.0833 74.5 90.625L75 92.875C73.375 93.0833 71.7708 93.3958 70.1875 93.8125C68.6042 94.2292 67.1042 94.7292 65.6875 95.3125C64.3125 95.8542 63.0625 96.4167 61.9375 97C60.8125 97.5833 59.9167 98.125 59.25 98.625ZM143.75 98.875C141.292 98.2917 138.333 97.0833 134.875 95.25C131.417 93.375 128.292 91.1042 125.5 88.4375C121.833 84.8958 119.271 81.0417 117.812 76.875C116.396 73.4167 115.5 69.0417 115.125 63.75V63.5C115.125 59.0417 116.146 54.4375 118.188 49.6875C119.729 46.0625 121.792 42.8333 124.375 40C125.458 38.8333 126.708 37.7083 128.125 36.625L141.25 28C143.458 28.75 147.229 30.5 152.562 33.25C156.438 35.25 160.188 38.25 163.812 42.25C166.479 46.4167 167.812 50.2708 167.812 53.8125C167.812 53.8958 167.812 54 167.812 54.125C167.188 59.2083 164.854 63.2917 160.812 66.375C153.938 71.625 145.375 74.2917 135.125 74.375C148.042 69.9583 155.688 64.8542 158.062 59.0625C158.562 57.8542 158.812 56.6667 158.812 55.5C158.812 55.4583 158.812 55.4167 158.812 55.375C158.812 55.3333 158.812 55.2917 158.812 55.25C158.812 53.5 158.083 51.7917 156.625 50.125C154.333 47.4167 151.042 45 146.75 42.875C139.417 39.25 133.458 37.2083 128.875 36.75C127.292 39.3333 125.854 43.25 124.562 48.5C123.562 52.5833 123.062 56.125 123.062 59.125C123.062 60.5417 123.167 61.8958 123.375 63.1875C123.958 66.8958 125.5 70.625 128 74.375C130.583 78.2083 134.188 81.2292 138.812 83.4375C142.812 85.3542 148.958 87.25 157.25 89.125L157.312 89.0625C157.979 88.0208 158.312 86.2083 158.312 83.625C158.312 82 158.042 79.875 157.5 77.25L166.375 80.75C165.25 83.2917 163.417 85.5833 160.875 87.625C158.958 89.1667 158 89.9583 158 90L143.75 98.875ZM206.312 99C203.021 97.625 199.979 96.375 197.188 95.25C195.479 94.5833 193.771 93.7708 192.062 92.8125C190.396 91.8125 188.812 90.75 187.312 89.625C185.812 88.5 184.458 87.3333 183.25 86.125C182.042 84.9167 181.083 83.7083 180.375 82.5L191.562 75.5C191.646 76.375 192.188 77.375 193.188 78.5C194.188 79.5833 195.792 80.7292 198 81.9375C200.208 83.1458 203.062 84.375 206.562 85.625C210.104 86.8333 214.458 87.9792 219.625 89.0625C221.75 85.4375 222.812 82.0208 222.812 78.8125C222.812 74.4792 220.312 71.625 215.312 70.25L213.75 69.8125C212.792 69.6458 211.667 69.4792 210.375 69.3125C209.125 69.1458 207.729 68.9583 206.188 68.75C202.188 68.25 198.625 67.5625 195.5 66.6875C192.375 65.8125 189.729 64.7083 187.562 63.375C185.396 62 183.708 60.3958 182.5 58.5625C181.292 56.6875 180.625 54.5208 180.5 52.0625C180.583 50.7708 180.771 49.5833 181.062 48.5C181.396 47.4167 181.917 46.2292 182.625 44.9375C183.375 43.6458 184.375 42.3125 185.625 40.9375C186.875 39.5625 188.479 38.125 190.438 36.625L203.688 27.9375C206.771 29.1875 209.438 30.3125 211.688 31.3125C213.938 32.3125 215.917 33.3333 217.625 34.375C219.333 35.375 220.854 36.4583 222.188 37.625C223.521 38.75 224.833 40.0625 226.125 41.5625L215.188 48.1875C213.729 46.4375 211.646 44.5833 208.938 42.625C206.104 40.625 200.062 38.7917 190.812 37.125L190.75 37.1875C189.792 38.2292 189 39.5417 188.375 41.125C187.75 42.6667 187.438 44.375 187.438 46.25C187.438 48.0417 188.042 49.5208 189.25 50.6875C190.458 51.8542 192.021 52.8125 193.938 53.5625C195.854 54.3125 197.979 54.8958 200.312 55.3125C202.688 55.7292 205 56.0833 207.25 56.375C219.833 57.7083 227.292 61.25 229.625 67C230.458 68.9583 230.875 71.0208 230.875 73.1875C230.875 74.1458 230.771 75.125 230.562 76.125C230.354 77.0833 229.958 78.1458 229.375 79.3125C228.792 80.4792 227.958 81.75 226.875 83.125C225.833 84.5 224.458 86.0417 222.75 87.75C222.333 88.1667 221.396 88.875 219.938 89.875L206.312 99ZM246.5 98.625C247.417 92.3333 248.083 85.7083 248.5 78.75C248.958 71.7917 249.188 64.4167 249.188 56.625C249.146 45.625 248.917 36.3958 248.5 28.9375C248.125 21.4792 247.583 15.7917 246.875 11.875L246.5 9.75C249 9.45833 251.521 8.875 254.062 8C256.604 7.08333 259.188 5.89583 261.812 4.4375L262.25 4.1875C261.542 8.85417 260.958 13.8542 260.5 19.1875C260.042 24.5208 259.729 30.2917 259.562 36.5L273.25 28C274.417 28.2917 275.75 28.75 277.25 29.375C278.792 30 280.396 30.7917 282.062 31.75C283.729 32.6667 285.417 33.75 287.125 35C288.875 36.25 290.5 37.6458 292 39.1875C293.542 40.6875 294.938 42.3542 296.188 44.1875C297.438 45.9792 298.438 47.9167 299.188 50C300.812 54 301.688 58.375 301.812 63.125C302.021 69.2083 302.312 74.5417 302.688 79.125C303.062 83.6667 303.542 87.5 304.125 90.625L304.625 92.875C302.875 93.0833 301.188 93.4167 299.562 93.875C297.979 94.2917 296.5 94.7708 295.125 95.3125C293.792 95.8542 292.583 96.4167 291.5 97C290.417 97.5833 289.542 98.125 288.875 98.625C290.5 87.7083 291.312 77.1458 291.312 66.9375C291.229 65.1458 291.146 63.5417 291.062 62.125C291.021 60.7083 290.917 59.4375 290.75 58.3125C290.625 57.1458 290.417 56.1042 290.125 55.1875C289.875 54.2292 289.5 53.3333 289 52.5C287.792 50.7083 286.396 49.1042 284.812 47.6875C283.271 46.2708 281.354 45 279.062 43.875C276.771 42.7083 274.042 41.6458 270.875 40.6875C267.75 39.6875 264 38.7292 259.625 37.8125H259.562C259.521 39.3542 259.479 40.9167 259.438 42.5C259.438 44.0417 259.438 45.6042 259.438 47.1875V49.375C259.479 59.4167 259.667 67.8542 260 74.6875C260.333 81.5208 260.917 86.8333 261.75 90.625L262.25 92.875C260.458 93.0833 258.75 93.4167 257.125 93.875C255.542 94.2917 254.062 94.7708 252.688 95.3125C251.354 95.8542 250.146 96.4167 249.062 97C248.021 97.5833 247.167 98.125 246.5 98.625ZM323.25 98.625C324.167 92.25 324.854 86.2292 325.312 80.5625C325.771 74.8958 326 69.5417 326 64.5C326 58.375 325.75 52.6458 325.25 47.3125C324.792 41.9792 324.25 37.0833 323.625 32.625L323.25 30.5C325.792 30.2083 328.312 29.625 330.812 28.75C333.354 27.8333 335.938 26.6458 338.562 25.1875L339 24.9375C338.042 31.2708 337.312 36.9583 336.812 42C336.354 47 336.125 51.4583 336.125 55.375C336.125 55.9167 336.125 56.4375 336.125 56.9375C336.125 57.4375 336.146 57.9167 336.188 58.375C336.604 67.125 336.958 74.1042 337.25 79.3125C337.583 84.5208 337.896 88.0417 338.188 89.875L341.062 91.3125C345.188 92.3958 349.021 92.9375 352.562 92.9375C356.271 92.9375 359.708 92.375 362.875 91.25C366.042 90.125 368.958 88.4583 371.625 86.25C373.25 83.875 374.438 81.5625 375.188 79.3125C375.979 77.0208 376.375 74.75 376.375 72.5C376.375 67.7917 375.167 63.875 372.75 60.75C370.333 57.625 366.833 55.5625 362.25 54.5625C361.208 54.3542 360.188 54.25 359.188 54.25C354.188 54.25 347.458 56.4167 339 60.75L348.188 44.8125C356.812 40.8958 361.125 34.6458 361.125 26.0625C361.125 23.0625 360 20.5833 357.75 18.625C355.542 16.6667 352.229 15.6875 347.812 15.6875C345.729 15.7292 343.417 16 340.875 16.5C338.333 16.9583 335.688 17.6667 332.938 18.625C330.229 19.5833 327.458 20.7917 324.625 22.25C321.833 23.7083 319.125 25.4375 316.5 27.4375L320.625 11.0625C323.625 9.85417 325.958 8.9375 327.625 8.3125C329.292 7.64583 330.354 7.22917 330.812 7.0625C333.812 6.10417 336.792 5.375 339.75 4.875C342.708 4.33333 345.625 4.0625 348.5 4.0625C351.417 4.0625 353.958 4.33333 356.125 4.875C358.292 5.41667 360.104 6.16667 361.562 7.125C364.688 9.25 367.021 11.625 368.562 14.25C370.104 16.875 370.875 19.6875 370.875 22.6875C370.833 25.0208 370.333 27.2708 369.375 29.4375C368.458 31.5625 367.271 33.5208 365.812 35.3125C364.354 37.1042 362.729 38.6875 360.938 40.0625C359.188 41.3958 357.458 42.3958 355.75 43.0625C356.458 42.9792 357.167 42.9167 357.875 42.875C358.583 42.7917 359.271 42.75 359.938 42.75C363.146 42.75 366.062 43.1667 368.688 44C371.354 44.8333 373.729 45.9375 375.812 47.3125C377.896 48.6875 379.708 50.2917 381.25 52.125C382.792 53.9167 384.062 55.7917 385.062 57.75C386.062 59.7083 386.812 61.6667 387.312 63.625C387.812 65.5833 388.062 67.4167 388.062 69.125C388.062 71.25 387.875 73.1875 387.5 74.9375C387.125 76.6875 386.771 78.0417 386.438 79C385.229 82.625 383.625 85.7083 381.625 88.25C379.667 90.7917 377.458 92.8542 375 94.4375C372.583 96.0208 369.958 97.1667 367.125 97.875C364.333 98.5833 361.479 98.9375 358.562 98.9375C356.812 98.9375 355.396 98.8958 354.312 98.8125C353.229 98.7292 352.625 98.6667 352.5 98.625L339 92.875C337.25 93.0833 335.562 93.4167 333.938 93.875C332.354 94.2917 330.875 94.7708 329.5 95.3125C328.167 95.8542 326.958 96.4167 325.875 97C324.792 97.5833 323.917 98.125 323.25 98.625ZM404.875 98.625C405.792 92.3333 406.458 85.7083 406.875 78.75C407.333 71.7917 407.562 64.4167 407.562 56.625C407.521 45.625 407.292 36.3958 406.875 28.9375C406.5 21.4792 405.958 15.7917 405.25 11.875L404.875 9.75C407.375 9.45833 409.896 8.875 412.438 8C414.979 7.08333 417.562 5.89583 420.188 4.4375L420.625 4.1875C419.917 8.85417 419.333 13.8542 418.875 19.1875C418.417 24.5208 418.104 30.2917 417.938 36.5L431.625 28C432.792 28.2917 434.125 28.75 435.625 29.375C437.167 30 438.771 30.7917 440.438 31.75C442.104 32.6667 443.792 33.75 445.5 35C447.25 36.25 448.875 37.6458 450.375 39.1875C451.917 40.6875 453.312 42.3542 454.562 44.1875C455.812 45.9792 456.812 47.9167 457.562 50C459.188 54 460.062 58.375 460.188 63.125C460.396 69.2083 460.688 74.5417 461.062 79.125C461.438 83.6667 461.917 87.5 462.5 90.625L463 92.875C461.25 93.0833 459.562 93.4167 457.938 93.875C456.354 94.2917 454.875 94.7708 453.5 95.3125C452.167 95.8542 450.958 96.4167 449.875 97C448.792 97.5833 447.917 98.125 447.25 98.625C448.875 87.7083 449.688 77.1458 449.688 66.9375C449.604 65.1458 449.521 63.5417 449.438 62.125C449.396 60.7083 449.292 59.4375 449.125 58.3125C449 57.1458 448.792 56.1042 448.5 55.1875C448.25 54.2292 447.875 53.3333 447.375 52.5C446.167 50.7083 444.771 49.1042 443.188 47.6875C441.646 46.2708 439.729 45 437.438 43.875C435.146 42.7083 432.417 41.6458 429.25 40.6875C426.125 39.6875 422.375 38.7292 418 37.8125H417.938C417.896 39.3542 417.854 40.9167 417.812 42.5C417.812 44.0417 417.812 45.6042 417.812 47.1875V49.375C417.854 59.4167 418.042 67.8542 418.375 74.6875C418.708 81.5208 419.292 86.8333 420.125 90.625L420.625 92.875C418.833 93.0833 417.125 93.4167 415.5 93.875C413.917 94.2917 412.438 94.7708 411.062 95.3125C409.729 95.8542 408.521 96.4167 407.438 97C406.396 97.5833 405.542 98.125 404.875 98.625ZM488.875 37.125L488.812 37.1875C487.604 39.4375 486.312 43.2083 484.938 48.5C483.938 52.2917 483.438 55.8333 483.438 59.125C483.438 60.4167 483.542 61.7708 483.75 63.1875C484.292 66.8542 485.833 70.5833 488.375 74.375C491 78.3333 494.604 81.3542 499.188 83.4375C503.479 85.3958 509.625 87.2917 517.625 89.125L517.688 89.0625C518.688 86.8125 519.875 82.6875 521.25 76.6875C522.083 73.0625 522.5 69.7708 522.5 66.8125C522.5 65.2292 522.396 63.8333 522.188 62.625C521.562 58.9583 520.021 55.2292 517.562 51.4375C515.562 48.3542 511.958 45.3542 506.75 42.4375C502.667 40.1458 496.708 38.375 488.875 37.125ZM504.125 98.875C501.625 98.25 498.667 97.0417 495.25 95.25C491.875 93.4583 488.75 91.1875 485.875 88.4375C482.208 84.8958 479.646 81.0417 478.188 76.875C476.396 72.625 475.5 68.25 475.5 63.75C475.5 63.625 475.5 63.5417 475.5 63.5C475.5 59.0417 476.521 54.4375 478.562 49.6875C480.188 45.8958 482.25 42.6667 484.75 40C485.917 38.75 487.167 37.625 488.5 36.625L501.75 27.9375C503.792 28.4792 506.771 29.75 510.688 31.75C513.604 33.25 516.708 35.5 520 38.5C523.708 42.0833 526.312 46.0625 527.812 50.4375C529.479 55.1042 530.333 59.4375 530.375 63.4375V63.6875C530.375 69.4375 529.458 74 527.625 77.375C524.792 82.5833 522.417 86.0417 520.5 87.75C519.458 88.6667 518.75 89.4167 518.375 90L504.125 98.875ZM546 24.625C546.792 21.2083 547.188 17.625 547.188 13.875C547.188 12.75 547.146 11.625 547.062 10.5C547.021 9.375 546.917 8.25 546.75 7.125L546.375 5.8125C551.75 5.27083 557.188 3.41667 562.688 0.25L563.125 0C562.458 2.375 562.125 5.77083 562.125 10.1875C562.125 11.3542 562.167 12.6458 562.25 14.0625C562.375 15.4375 562.542 16.9583 562.75 18.625C561.042 18.8333 559.333 19.1667 557.625 19.625C555.958 20.0417 554.375 20.5417 552.875 21.125C551.417 21.6667 550.083 22.25 548.875 22.875C547.708 23.5 546.75 24.0833 546 24.625ZM535.875 121.688C541.542 114.146 545.667 105.979 548.25 97.1875C549.125 94.2708 549.562 86.5417 549.562 74V72.4375C549.562 66.6042 549.375 60.6458 549 54.5625C548.625 48.4792 548.083 42.1875 547.375 35.6875L547 33.5625C549.542 33.2708 552.062 32.6875 554.562 31.8125C557.104 30.8958 559.688 29.7083 562.312 28.25L562.75 28C561.792 33.9583 561.062 39.9792 560.562 46.0625C560.104 52.1042 559.875 58.2708 559.875 64.5625C559.875 70.2708 560 75.125 560.25 79.125C560.542 83.0833 560.917 86 561.375 87.875C561.375 87.9583 561.146 88.5833 560.688 89.75C560.229 90.875 559.562 92.3542 558.688 94.1875C557.812 95.9792 556.75 97.9792 555.5 100.188C554.25 102.396 552.833 104.583 551.25 106.75C545.833 114.125 540.938 119.167 536.562 121.875L535.875 121.688Z" fill="white"/>
</svg>
